<svg width="240" height="86" viewBox="0 0 240 86" fill="none" xmlns="http://www.w3.org/2000/svg">
<path d="M89.3908 37.6021C86.3262 40.8408 80.7693 46.6595 75.2493 51.8013C70.6893 56.0464 66.1293 59.7974 62.9908 61.2247C62.1416 61.6089 61.3847 61.8285 60.7755 61.8285C60.757 61.8285 60.7385 61.8285 60.7016 61.8285C60.3324 61.8285 60.1847 61.7187 60.0185 61.5357C60.0001 61.4991 59.4093 60.5842 60.4801 56.2842C61.237 53.2102 62.5847 49.3676 63.8955 45.6532C64.8001 43.0732 65.6678 40.6213 66.3693 38.3706C66.277 38.4438 66.1662 38.517 66.0555 38.5902C64.0432 40.0357 61.9201 41.7008 59.7047 43.4757C59.6308 43.7136 59.5385 43.9515 59.4462 44.1893C55.7724 54.6557 53.6493 61.2247 56.4001 64.4268C57.4524 65.6527 58.8924 66.3298 60.5539 66.3664C60.6093 66.3664 60.6647 66.3664 60.7201 66.3664C61.3847 66.3664 62.0862 66.2749 62.8432 66.0736C65.317 65.4149 68.3632 63.6217 72.3139 60.4562C77.3908 56.3757 83.9816 49.9898 92.7878 40.7127L89.3908 37.6021ZM63.6001 29.551V29.5876C65.2247 28.5081 66.6832 27.6664 68.0308 27.0259C67.717 25.8 67.0708 24.8302 66.0185 24.1532C61.2185 21.0974 52.9293 27.52 36.4432 41.8289C31.9385 45.7447 28.3201 49.1115 25.3662 51.8744C25.1078 52.1306 24.8308 52.3685 24.5724 52.6064C21.7293 55.2779 19.4955 57.3638 17.797 58.6813C16.9847 59.3034 16.4124 59.6693 16.0062 59.8706C15.4524 60.1451 15.2493 60.1451 15.2493 60.1268C14.8432 59.9438 13.7355 58.2604 13.9385 53.0455C14.1047 48.9102 15.0832 43.7319 16.4862 39.5234C18.9232 32.2408 25.717 22.0672 28.597 18.9383L25.1262 15.9008C22.0432 19.231 14.8247 29.7889 12.0555 38.1144C10.1355 43.9149 6.22161 61.0966 13.2924 64.2621C14.4924 64.7927 15.6555 64.7745 16.7447 64.4817C17.9816 64.134 19.1078 63.4204 20.0678 62.7251C21.4339 61.737 23.0032 60.3647 24.9232 58.5898C25.8093 57.7664 26.7693 56.8698 27.8216 55.8817C30.8862 53.0089 34.7078 49.4225 39.5632 45.214C44.6955 40.7493 50.0124 36.1383 54.6647 32.7166C58.3016 30.0451 60.517 28.874 61.8278 28.3434C62.6955 28.014 63.637 28.6544 63.6001 29.551Z" fill="#065CE5"/>
<path d="M29.3352 27.52L29.2059 27.6847C26.529 31.3443 20.289 39.9443 18.8859 49.2213C18.5536 51.3804 18.3321 53.3566 18.2213 55.1681C19.5321 54.0153 21.0644 52.5698 22.8552 50.8864C23.0398 50.7034 23.2429 50.5204 23.4275 50.3375C23.4459 50.1728 23.4829 50.0081 23.5013 49.8434C24.7382 41.6643 30.5352 33.6864 33.009 30.283L33.1382 30.1183L29.3352 27.52Z" fill="#02C597"/>
<path d="M94.91 52.4051C89.4269 57.9311 84.9223 62.0298 81.1377 64.9392C76.8361 68.2511 73.5869 69.9162 71.0761 70.0443C69.9869 70.0992 69.0269 69.8796 68.1777 69.3673C67.5684 69.0013 67.0884 68.5438 66.7377 67.9949C67.1623 67.7936 67.5869 67.5558 68.0115 67.2996H68.03C68.9346 66.8238 69.9131 66.2383 70.9469 65.5247C72.1838 65.4149 77.0577 63.823 91.55 49.2579L94.91 52.4051Z" fill="#02C597"/>
<path d="M71.5569 32.68C72.6277 32.2226 73.7908 33.0643 73.6616 34.1987C73.5692 34.9307 73.3846 35.9187 73.0523 37.1813C72.2585 40.2004 70.8739 43.9515 69.5446 47.5745C68.4369 50.6119 67.3846 53.4664 66.5723 56.0464C68.2708 54.7472 70.4123 52.9358 73.1262 50.4473C73.2923 50.3009 73.4585 50.1545 73.6246 49.9898C73.7354 49.697 73.8462 49.4043 73.9569 49.1115C77.6862 38.9745 80.6216 30.9783 76.2277 28.2885C74.7692 27.3919 72.9785 27.3553 70.7446 28.1238C67.9754 29.0753 64.5046 31.2894 60.0923 34.6745C56.2339 37.6387 51.6369 41.4996 46.1539 46.2204C41.4092 50.3009 37.5692 53.9238 34.4677 56.8332C31.3108 59.7975 28.8369 62.1396 26.9354 63.5119C24.96 64.9392 24.3877 64.7379 24.3692 64.7379C24.1108 64.6281 23.7415 64.189 23.4277 63.2009C22.7631 63.7498 22.1539 64.2255 21.5631 64.6647C20.9723 65.1038 20.2892 65.543 19.5508 65.9455C20.2892 67.4094 21.3046 68.4158 22.5969 68.9281C26.6216 70.52 30.3323 67.0251 37.6985 60.0902C40.7631 57.2175 44.5477 53.6311 49.2185 49.6238C51.9508 47.2817 54.72 44.8847 57.4154 42.6524C59.9446 40.5664 62.4 38.5902 64.7077 36.9068C67.1446 35.1319 68.9539 34.0158 70.3016 33.3021C70.7816 33.046 71.2062 32.8447 71.5569 32.68Z" fill="#02C597"/>
<path d="M124.467 52.643C123.821 52.643 123.267 52.8625 122.806 53.32C122.344 53.7774 122.123 54.3081 122.123 54.9302C122.123 55.5706 122.344 56.1196 122.806 56.577C123.267 57.0345 123.821 57.254 124.467 57.254C125.113 57.254 125.667 57.0345 126.129 56.577C126.59 56.1196 126.812 55.5706 126.812 54.9302C126.812 54.3081 126.59 53.7591 126.129 53.32C125.667 52.8625 125.113 52.643 124.467 52.643Z" fill="#065CE5"/>
<path d="M118.633 52.643C117.987 52.643 117.433 52.8625 116.972 53.32C116.51 53.7774 116.288 54.3081 116.288 54.9302C116.288 55.5706 116.51 56.1196 116.972 56.577C117.433 57.0345 117.987 57.254 118.633 57.254C119.279 57.254 119.833 57.0345 120.295 56.577C120.756 56.1196 120.978 55.5706 120.978 54.9302C120.978 54.3081 120.756 53.7591 120.295 53.32C119.833 52.8625 119.279 52.643 118.633 52.643Z" fill="#065CE5"/>
<path d="M156.368 31.3442C157.015 31.3442 157.568 31.1247 158.03 30.6672C158.491 30.2098 158.713 29.6608 158.713 29.0204C158.713 28.3983 158.491 27.8493 158.03 27.4102C157.568 26.9528 157.015 26.7332 156.368 26.7332C155.722 26.7332 155.168 26.9528 154.707 27.4102C154.245 27.8676 154.024 28.3983 154.024 29.0204C154.024 29.6608 154.245 30.2098 154.707 30.6672C155.168 31.1064 155.722 31.3442 156.368 31.3442Z" fill="#065CE5"/>
<path d="M187.384 32.6434C186.775 32.1676 186.091 31.8017 185.353 31.5455C184.615 31.2893 183.876 31.1796 183.119 31.1796C182.547 31.1796 182.011 31.2345 181.531 31.3625L170.141 33.723V24.5191H165.931V40.5481H164.196H163.624H160.411C159.968 40.5481 159.562 40.4017 159.23 40.1089C158.879 39.8162 158.676 39.4502 158.584 39.0293V34.034H154.338V39.011C154.338 39.4319 154.19 39.7979 153.876 40.1089C153.562 40.42 153.193 40.5664 152.768 40.5664H149.851H149.316H139.956H139.421H140.639H140.104H138.424C136.651 40.5481 134.861 40.2553 133.051 39.6881L127.31 37.4374L125.722 41.3349L132.036 43.7685C132.387 43.8966 132.682 44.0979 132.922 44.3906C133.144 44.6834 133.255 45.0128 133.255 45.397C133.255 45.7996 133.107 46.1655 132.793 46.4583C132.479 46.7693 132.147 46.9157 131.759 46.9157H111.673C111.267 46.9157 110.916 46.7693 110.621 46.4949C110.325 46.2204 110.196 45.8728 110.196 45.4702V39.377H105.987V45.4702C105.987 46.5132 106.245 47.4464 106.744 48.3064C107.242 49.1664 107.944 49.8434 108.811 50.3374C109.679 50.8315 110.639 51.0876 111.691 51.0876H131.778C132.83 51.0876 133.771 50.8315 134.639 50.3191C135.507 49.8068 136.19 49.1115 136.707 48.2515C137.224 47.3732 137.482 46.4217 137.482 45.397L137.464 44.6834C137.667 44.72 137.962 44.7383 138.35 44.7383H140.122H140.658H139.439H139.975H149.335H149.87H153.267C154.541 44.7383 155.704 44.3174 156.719 43.4757C157.827 44.3174 159.064 44.7383 160.411 44.7383H163.624H164.159H187.291C188.067 44.7383 188.731 44.4638 189.267 43.9149C189.802 43.3659 190.079 42.7072 190.079 41.957V38.023C190.061 36.9617 189.821 35.9736 189.359 35.0404C188.879 34.0889 188.233 33.3021 187.384 32.6434ZM185.851 39.6881C185.851 39.9259 185.778 40.1272 185.611 40.2919C185.445 40.4566 185.242 40.5481 184.984 40.5481H170.141V38.0047L182.473 35.4979C182.695 35.4247 182.916 35.3881 183.175 35.3881C183.765 35.3881 184.301 35.5893 184.799 35.9736C185.131 36.2298 185.408 36.5225 185.575 36.8885C185.759 37.2545 185.851 37.6204 185.851 38.0047V39.6881Z" fill="#065CE5"/>
<path d="M216.886 39.8528C216.886 40.0357 216.812 40.2004 216.682 40.3285C216.553 40.4749 216.387 40.5481 216.184 40.5481H213.747H213.212H211.273V31.3442H200.307C199.089 31.3442 197.962 31.637 196.91 32.2408C195.876 32.8447 195.064 33.6498 194.455 34.6745C193.846 35.6991 193.55 36.8153 193.55 38.0413C193.55 39.2489 193.846 40.3834 194.455 41.4081C195.064 42.451 195.876 43.2562 196.91 43.8783C197.944 44.4821 199.07 44.7932 200.307 44.7932H207.009C206.861 45.4519 206.547 46.0191 206.03 46.4766C205.033 47.2451 203.427 47.6293 201.193 47.6293C200.455 47.6293 199.753 47.5928 199.052 47.5196C198.369 47.4464 197.815 47.3732 197.409 47.2817L196.486 51.2889C196.836 51.3804 197.427 51.4902 198.313 51.6183C199.181 51.7464 200.141 51.8013 201.156 51.8013C204.406 51.8013 206.898 51.0876 208.615 49.6787C210.092 48.5259 210.941 46.8608 211.181 44.72H213.212H213.747H216.184C217.07 44.72 217.882 44.5004 218.639 44.0613C219.396 43.6221 219.987 43.0366 220.43 42.2864C220.873 41.5362 221.095 40.7311 221.095 39.8528V24.5191H216.886V39.8528ZM207.082 40.6213H200.307C199.606 40.6213 198.996 40.3651 198.498 39.8528C197.999 39.3404 197.741 38.7366 197.741 38.023C197.741 37.3276 197.999 36.7238 198.498 36.2115C198.996 35.6991 199.606 35.443 200.307 35.443H207.082V40.6213Z" fill="#065CE5"/>
<path d="M229.9 24.5191H225.691V44.72H229.9V24.5191Z" fill="#065CE5"/>
<path d="M135.277 63.047H132.584C132.094 63.047 131.713 62.6695 131.713 62.2112C131.713 61.7259 132.094 61.3485 132.584 61.3485H133.753C134.243 61.3485 134.624 61.7259 134.624 62.2112V62.2921H135.304V62.2112C135.304 61.3754 134.624 60.6745 133.753 60.6745H132.584C131.768 60.6745 131.033 61.3485 131.033 62.2112C131.033 62.5617 131.196 62.8583 131.414 63.047H130.625V63.721H135.277V63.047Z" fill="#065CE5"/>
<path d="M146.102 64.5568C146.564 64.5568 146.945 64.1793 146.945 63.721C146.945 63.2896 146.564 62.9122 146.102 62.9122C145.667 62.9122 145.286 63.2896 145.286 63.721C145.286 64.2063 145.64 64.5568 146.102 64.5568Z" fill="#065CE5"/>
<path d="M161.553 62.1034C161.553 61.672 161.173 61.2946 160.71 61.2946C160.275 61.2946 159.867 61.672 159.867 62.1034C159.867 62.5617 160.248 62.9392 160.71 62.9392C161.173 62.9392 161.553 62.5617 161.553 62.1034Z" fill="#065CE5"/>
<path d="M159.105 69.6523C159.105 70.542 158.398 71.2969 157.473 71.2969H156.14H155.786H154.997C154.154 71.2969 153.474 70.6229 153.447 69.814V59.9465H152.223V69.814C152.223 70.6498 151.543 71.2969 150.727 71.2969H149.992H149.639H148.551C147.571 71.2969 146.755 70.515 146.701 69.5444V66.2553H145.504V69.5444C145.504 70.515 144.715 71.2969 143.736 71.2969H142.648H142.322H140.445V59.8387H139.248V70.8655C139.248 71.0812 139.057 71.2969 138.813 71.2969H128.83C127.687 71.2969 126.735 70.3802 126.735 69.2209V66.3631H125.538V69.2479C125.538 71.0272 127.007 72.5101 128.83 72.5101H142.322H142.648H143.845C144.824 72.5101 145.722 71.9439 146.157 71.1621C146.619 71.9439 147.49 72.5101 148.523 72.5101H149.612H149.965H150.808C151.679 72.5101 152.44 72.0248 152.849 71.3777C153.284 72.0517 154.045 72.5101 154.943 72.5101H155.732H156.086H157.418C158.996 72.5101 160.302 71.216 160.302 69.6792V64.5298H159.05V69.6523H159.105Z" fill="#065CE5"/>
<path d="M158.289 62.9392C158.779 62.9392 159.133 62.5617 159.133 62.1034C159.133 61.672 158.752 61.2946 158.289 61.2946C157.854 61.2946 157.473 61.672 157.473 62.1034C157.473 62.5617 157.854 62.9392 158.289 62.9392Z" fill="#065CE5"/>
<path d="M159.486 60.7284C159.949 60.7284 160.329 60.351 160.329 59.8926C160.329 59.4343 159.949 59.0838 159.486 59.0838C159.051 59.0838 158.67 59.4343 158.67 59.8926C158.67 60.351 159.051 60.7284 159.486 60.7284Z" fill="#065CE5"/>
<path d="M171.182 73.9659C170.747 73.9659 170.366 74.3434 170.366 74.7747C170.366 75.2331 170.747 75.6105 171.182 75.6105C171.645 75.6105 172.026 75.2331 172.026 74.7747C172.053 74.3434 171.645 73.9659 171.182 73.9659Z" fill="#065CE5"/>
<path d="M173.658 69.6523C173.658 70.542 172.924 71.2969 171.999 71.2969H170.04H169.687H168.762C167.864 71.2969 167.13 70.5689 167.13 69.6792V64.4759H165.933V72.0248C165.933 72.9954 165.661 73.7503 165.089 74.2355C163.947 75.26 161.526 74.9635 161.308 74.9096L161.118 76.0689C161.39 76.1767 162.152 76.2037 162.805 76.1767C163.838 76.0958 165.008 75.8532 165.851 75.1522C166.586 74.5321 167.13 73.5346 167.13 72.0248V71.9439C167.592 72.2674 168.163 72.4831 168.762 72.4831H169.687H170.04H171.999C173.604 72.4831 174.882 71.189 174.882 69.6523V64.5029H173.658V69.6523Z" fill="#065CE5"/>
<path d="M173.713 73.9659C173.277 73.9659 172.896 74.3434 172.896 74.7747C172.896 75.2331 173.277 75.6105 173.713 75.6105C174.175 75.6105 174.556 75.2331 174.556 74.7747C174.556 74.3434 174.175 73.9659 173.713 73.9659Z" fill="#065CE5"/>
<path d="M179.479 59.8387H178.282V72.4831H179.479V59.8387Z" fill="#065CE5"/>
<path d="M191.175 65.9317C191.637 65.9317 192.018 65.5543 192.018 65.096C192.018 64.6646 191.637 64.2872 191.175 64.2872C190.74 64.2872 190.332 64.6646 190.332 65.096C190.332 65.5543 190.713 65.9317 191.175 65.9317Z" fill="#065CE5"/>
<path d="M210.897 64.4489H202.764V69.7331C202.764 70.5959 202.029 71.2969 201.186 71.2969H199.935L198.629 71.2699C197.65 71.2699 196.834 70.4611 196.834 69.4635V64.5298H195.637L195.664 73.1302C195.664 73.3998 195.446 73.6424 195.12 73.6424H188.782C187.748 73.6424 186.905 72.8066 186.905 71.7821V68.3042H185.708V71.7821C185.708 73.4537 187.068 74.8287 188.782 74.8287H195.338C196.154 74.8287 196.834 74.1546 196.834 73.3458V71.5665C197.215 72.1057 197.867 72.4561 198.629 72.4561H199.608H201.213C202.301 72.4561 203.199 71.7282 203.471 70.8116L203.498 70.488C204.151 71.6743 205.429 72.4561 206.925 72.4561H210.897C213.209 72.4561 215.059 70.6768 215.059 68.4121C215.059 66.3092 213.209 64.4489 210.897 64.4489ZM210.897 71.3508H206.925C205.293 71.3508 203.96 70.0027 203.96 68.3851V65.6621H210.897C212.556 65.6621 213.862 66.9562 213.862 68.466C213.862 70.0567 212.556 71.3508 210.897 71.3508Z" fill="#065CE5"/>
</svg>
